<svg id="Capa_1" data-name="Capa 1" xmlns="http://www.w3.org/2000/svg" viewBox="0 0 25 25"><defs><style>.cls-1{fill:#912734;stroke:#912734;stroke-miterlimit:10;stroke-width:0.5px;}</style></defs><title>luckyicons</title><path class="cls-1" d="M19.87,4a.38.38,0,0,1-.26-.11,7.21,7.21,0,0,0-10.19,0,.37.37,0,1,1-.52-.52,8,8,0,0,1,11.23,0,.37.37,0,0,1,0,.52A.38.38,0,0,1,19.87,4Z"/><path class="cls-1" d="M22.23,21.09a3.61,3.61,0,0,1-3.61-3.6.38.38,0,0,1,.37-.37.37.37,0,0,1,.36.37,2.88,2.88,0,0,0,2.88,2.87.37.37,0,0,1,.36.37A.36.36,0,0,1,22.23,21.09Z"/><path class="cls-1" d="M11.27,24a12.29,12.29,0,0,1-8.74-3.62.37.37,0,1,1,.52-.52,11.61,11.61,0,0,0,16.44,0,.37.37,0,1,1,.52.52A12.29,12.29,0,0,1,11.27,24Z"/><path class="cls-1" d="M6.57,15.37H2.7a.28.28,0,0,1-.27-.18.29.29,0,0,1,.06-.32l4-4a.29.29,0,0,1,.41.41L3.4,14.79H6.57a.29.29,0,0,1,0,.58Z"/><path class="cls-1" d="M14.54,11.46A3.47,3.47,0,1,1,18,8,3.47,3.47,0,0,1,14.54,11.46Zm0-6.34A2.88,2.88,0,1,0,17.42,8,2.88,2.88,0,0,0,14.54,5.12Z"/></svg>