<svg id="Capa_1" data-name="Capa 1" xmlns="http://www.w3.org/2000/svg" viewBox="0 0 1000 1000"><defs><style>.cls-1,.cls-2,.cls-3,.cls-5,.cls-6{fill:#b93544;}.cls-2{opacity:0.5;}.cls-3{opacity:0.3;}.cls-4{fill:#ffb600;}.cls-5{opacity:0.7;}.cls-6{opacity:0.8;}</style></defs><title>svgslucky</title><rect class="cls-1" x="273.77" y="288.43" width="455.58" height="455.58"/><rect class="cls-2" x="211.27" y="220.65" width="580.59" height="580.59"/><rect class="cls-3" x="148.01" y="157.4" width="707.1" height="707.1"/><path class="cls-4" d="M478.1,713.67H327.84a27.08,27.08,0,0,1-27-27v-290a27.09,27.09,0,0,1,27-27.06H478.1a27.09,27.09,0,0,1,27,27.06v290A27.08,27.08,0,0,1,478.1,713.67ZM327.84,377.43a19.25,19.25,0,0,0-19.22,19.22v290a19.25,19.25,0,0,0,19.22,19.22H478.1a19.24,19.24,0,0,0,19.21-19.22v-290a19.24,19.24,0,0,0-19.21-19.22Z"/><path class="cls-4" d="M417.87,698h-29.8a11.1,11.1,0,1,1,0-22.2h29.8a11.1,11.1,0,0,1,0,22.2Zm-29.8-14.36a3.27,3.27,0,0,0,0,6.53h29.8a3.27,3.27,0,0,0,0-6.53Z"/><path class="cls-4" d="M378.81,690.82h-50.6a11.11,11.11,0,0,1-11.1-11.1,3.92,3.92,0,1,1,7.84,0,3.27,3.27,0,0,0,3.26,3.27h50.6a3.92,3.92,0,1,1,0,7.83Z"/><path class="cls-4" d="M477.73,690.82h-52a3.92,3.92,0,1,1,0-7.83h52a3.27,3.27,0,0,0,3.26-3.27,3.92,3.92,0,1,1,7.84,0A11.11,11.11,0,0,1,477.73,690.82Z"/><path class="cls-4" d="M437.9,389.18H368a11.11,11.11,0,0,1-11.1-11.1,3.92,3.92,0,1,1,7.83,0,3.27,3.27,0,0,0,3.27,3.26H437.9a3.26,3.26,0,0,0,3.26-3.26,3.92,3.92,0,0,1,7.84,0A11.11,11.11,0,0,1,437.9,389.18Z"/><path class="cls-4" d="M550.56,519.5a3.46,3.46,0,0,1-2.37-6c.35-.32,33.82-31.9,52.25-74.65a152.83,152.83,0,0,1-53.35-116.19c0-84.48,68.73-153.21,153.21-153.21s153.21,68.73,153.21,153.21S784.78,475.87,700.3,475.87a152.45,152.45,0,0,1-55.12-10.22C620.4,501.39,588.58,519.5,550.56,519.5ZM700.3,176.39C619.65,176.39,554,242,554,322.66a145.93,145.93,0,0,0,52.82,112.52,3.46,3.46,0,0,1,1,4c-14.18,34.26-37.42,61.27-48.58,73,32.56-2.64,60-20.35,81.74-52.74a3.48,3.48,0,0,1,4.2-1.28,145.53,145.53,0,0,0,55.11,10.74c80.66,0,146.27-65.62,146.27-146.27S781,176.39,700.3,176.39Z"/><path class="cls-4" d="M550.56,521a5,5,0,0,1-3.38-8.58c.33-.31,33.08-31.21,51.46-73.15a154.59,154.59,0,0,1-53-116.6c0-85.3,69.4-154.7,154.7-154.7S855,237.36,855,322.66s-69.4,154.7-154.7,154.7a154,154,0,0,1-54.57-9.9C620.76,503,588.75,521,550.56,521Zm149.74-350c-83.66,0-151.72,68.06-151.72,151.72a151.59,151.59,0,0,0,52.83,115.06l.82.72-.43,1c-18.53,43-52.25,74.82-52.59,75.14a2,2,0,0,0,1.35,3.44c37.49,0,68.91-17.91,93.4-53.21l.66-1,1.1.42a150.8,150.8,0,0,0,54.58,10.12C784,474.38,852,406.32,852,322.66S784,170.94,700.3,170.94ZM555.5,514l2.67-2.82c12.09-12.74,34.43-39.1,48.29-72.58a2,2,0,0,0-.56-2.28,147.44,147.44,0,0,1-53.35-113.67c0-81.47,66.28-147.76,147.75-147.76s147.76,66.29,147.76,147.76S781.78,470.42,700.3,470.42a146.89,146.89,0,0,1-55.67-10.85,2,2,0,0,0-2.4.73c-22,32.74-49.84,50.71-82.86,53.4ZM700.3,177.88c-79.83,0-144.78,65-144.78,144.78A144.48,144.48,0,0,0,607.8,434a4.94,4.94,0,0,1,1.41,5.71c-13.07,31.55-33.54,56.84-46.17,70.59,30.36-3.68,56.16-21,76.72-51.7a5,5,0,0,1,6-1.83,143.83,143.83,0,0,0,54.55,10.63c79.84,0,144.78-64.95,144.78-144.78S780.14,177.88,700.3,177.88Z"/><path class="cls-4" d="M694.29,360.34c-.62,0-.89-.27-.89-.89V357c0-.63.27-.9.89-.9h2.47c.63,0,.9.27.9.9v2.5c0,.62-.27.89-.9.89Zm8.81,0c-.63,0-.89-.27-.89-.89V357c0-.63.26-.9.89-.9h2.47c.62,0,.89.27.89.9v2.5c0,.62-.27.89-.89.89Z"/><path class="cls-4" d="M713.07,371.18c.6.41.57.71.21,1.25l-.77,1.1a.84.84,0,0,1-1.28.29,22.59,22.59,0,0,0-10.59-3.12A21.82,21.82,0,0,0,690,373.82a.86.86,0,0,1-1.28-.29l-.77-1.1a.78.78,0,0,1,.21-1.25,19.7,19.7,0,0,1,24.89,0Z"/><path class="cls-4" d="M700.3,388.11a22.81,22.81,0,1,1,22.81-22.81A22.84,22.84,0,0,1,700.3,388.11Zm0-42.64a19.83,19.83,0,1,0,19.84,19.83A19.85,19.85,0,0,0,700.3,345.47Z"/><path class="cls-4" d="M575.36,307.49c0-.54.25-.77.79-.77h1.47c.54,0,.77.23.8.77l.36,10.95c0,.54-.21.77-.75.77h-2.36c-.54,0-.78-.23-.75-.77Zm-.31-5.56c0-.54.23-.77.77-.77H578c.54,0,.77.23.77.77v2.14c0,.54-.23.77-.77.77h-2.19c-.54,0-.77-.23-.77-.77Z"/><path class="cls-4" d="M581,311.55a.55.55,0,0,1,.83-.44,12.64,12.64,0,0,0,4.39,1c1.67,0,2.63-.57,2.63-2s-1-2-2.78-2.67c-2.88-1-5.48-1.93-5.48-5.37s2.93-4.84,6.3-4.84a13.71,13.71,0,0,1,3.94.59.71.71,0,0,1,.54,1l-.31,1.31c-.13.51-.41.64-.88.49a9.46,9.46,0,0,0-2.95-.52c-1.62,0-3.06.16-3.06,2,0,1.56,1.54,1.9,3.24,2.49,2.93,1,5,2.57,5,5.3,0,3.13-2.47,5.16-5.86,5.16a15.35,15.35,0,0,1-5.25-.84.87.87,0,0,1-.54-1.08Z"/><path class="cls-4" d="M598.51,313.87c0,.53-.23.77-.77.77h-2.26c-.54,0-.77-.24-.77-.77V298.23c0-.54.23-.77.77-.77h2.26c.54,0,.77.23.77.77Z"/><path class="cls-4" d="M609.83,297.15a15.9,15.9,0,0,1,3.7.46c.57.16.7.44.59.95l-.28,1.26c-.1.52-.41.65-.93.52a11,11,0,0,0-2.72-.36c-2.8,0-5.14,1.31-5.14,5.94s2,6,4.47,6a17.6,17.6,0,0,0,2-.08V307c0-.54.23-.77.77-.77h1.9c.54,0,.77.23.77.77v6.36a.9.9,0,0,1-.77,1,18.69,18.69,0,0,1-4.81.56c-4.34,0-8.18-1.87-8.2-8.89C601.32,299.23,605.51,297.15,609.83,297.15Z"/><path class="cls-4" d="M624.32,314.94c-4.86,0-6.74-2.08-6.74-6.63V298.23c0-.54.23-.77.77-.77h2.31c.54,0,.78.23.78.77v9.95c0,2.26.25,3.68,2.93,3.68s2.85-1.26,2.85-3.68v-9.95c0-.54.23-.77.77-.77h2.32c.54,0,.77.23.77.77v10.08C631.08,312.73,629.43,314.94,624.32,314.94Z"/><path class="cls-4" d="M646.11,313.87c0,.53-.24.77-.78.77H635c-.54,0-.77-.24-.77-.77V298.23c0-.54.23-.77.77-.77h10.06c.54,0,.77.23.77.77v1.44c0,.54-.23.77-.77.77h-7v3.86h6.58c.54,0,.77.23.77.77v1.34c0,.54-.23.77-.77.77h-6.58v4.47h7.27c.54,0,.78.24.78.78Z"/><path class="cls-4" d="M653.62,298.56a.87.87,0,0,1,.83-.92,31.11,31.11,0,0,1,4.81-.36c3.49,0,6.89.92,6.89,5.76,0,3.91-2.57,5.55-6,5.55a13.44,13.44,0,0,1-2.75-.3v5.58c0,.53-.23.77-.77.77h-2.27c-.53,0-.77-.24-.77-.77Zm5.61,7.38c1.78,0,3.27-.48,3.27-2.8,0-2.57-1.67-3.14-3.24-3.14a9.61,9.61,0,0,0-1.83.21v5.58A8.42,8.42,0,0,0,659.23,305.94Z"/><path class="cls-4" d="M678.6,314.64a.94.94,0,0,1-1-.72l-1.11-3.35h-5.66l-1.05,3.32a.93.93,0,0,1-1,.75h-2.34c-.54,0-.7-.24-.52-.72l5.45-15.74a1,1,0,0,1,1-.72h2.65a1,1,0,0,1,1,.72l5.25,15.74c.18.48,0,.72-.52.72ZM673.69,301l-2,6.76h3.91Z"/><path class="cls-4" d="M683.19,298.54a.77.77,0,0,1,.74-.9,32.36,32.36,0,0,1,4.89-.36c3.5,0,6.89.92,6.89,5.76,0,3-1.39,4.71-3.47,5.37L696,314c.31.47.08.65-.33.65h-2.57A1.26,1.26,0,0,1,692,314l-3.22-5.22a14.18,14.18,0,0,1-1.75-.29v5.41c0,.53-.23.77-.77.77H684c-.54,0-.77-.24-.77-.77Zm5.6,7.63c1.78,0,3.27-.48,3.27-3s-1.67-3.14-3.24-3.14a7.89,7.89,0,0,0-1.83.16V306A13.66,13.66,0,0,0,688.79,306.17Z"/><path class="cls-4" d="M696.7,298.23c0-.54.23-.77.77-.77h12.14c.54,0,.77.23.77.77v1.41c0,.54-.23.77-.77.77h-4.22v13.46c0,.53-.23.77-.77.77h-2.27c-.54,0-.77-.24-.77-.77V300.41h-4.11c-.54,0-.77-.23-.77-.77Z"/><path class="cls-4" d="M716.09,313.87c0,.53-.23.77-.77.77h-2.26c-.54,0-.77-.24-.77-.77V298.23c0-.54.23-.77.77-.77h2.26c.54,0,.77.23.77.77Z"/><path class="cls-4" d="M728.21,311.94a21.37,21.37,0,0,0,2.18-.13c.54-.05.8.15.83.69l.07,1.31a.77.77,0,0,1-.77.9,22.85,22.85,0,0,1-3.32.26c-4.55,0-8.43-1.88-8.45-9,0-6.77,4.34-8.85,8.66-8.85a13.52,13.52,0,0,1,3.45.46.71.71,0,0,1,.59.95l-.28,1.29a.6.6,0,0,1-.88.51,8.35,8.35,0,0,0-2.52-.38c-2.85,0-5.12,1.39-5.14,5.94C722.65,310.88,725.12,311.94,728.21,311.94Z"/><path class="cls-4" d="M737.81,313.87c0,.53-.23.77-.77.77h-2.27c-.54,0-.77-.24-.77-.77V298.23c0-.54.23-.77.77-.77H737c.54,0,.77.23.77.77Z"/><path class="cls-4" d="M741.1,298.56a.86.86,0,0,1,.82-.92,31.34,31.34,0,0,1,4.81-.36c3.5,0,6.9.92,6.9,5.76,0,3.91-2.58,5.55-6,5.55a13.37,13.37,0,0,1-2.75-.3v5.58c0,.53-.23.77-.77.77h-2.27c-.54,0-.77-.24-.77-.77Zm5.61,7.38c1.77,0,3.26-.48,3.26-2.8,0-2.57-1.67-3.14-3.24-3.14a9.49,9.49,0,0,0-1.82.21v5.58A8.42,8.42,0,0,0,746.71,305.94Z"/><path class="cls-4" d="M766.08,314.64a1,1,0,0,1-1-.72l-1.1-3.35h-5.66l-1,3.32a.94.94,0,0,1-1,.75h-2.35c-.54,0-.69-.24-.51-.72l5.45-15.74a1,1,0,0,1,1-.72h2.65a1,1,0,0,1,1,.72l5.24,15.74c.18.48,0,.72-.51.72ZM761.17,301l-2,6.76h3.91Z"/><path class="cls-4" d="M782.72,314.64a1.28,1.28,0,0,1-1.18-.65l-7.22-11.36v11.24c0,.53-.24.77-.78.77h-2.11c-.53,0-.77-.24-.77-.77V298.23c0-.54.24-.77.77-.77h2.5a1.27,1.27,0,0,1,1.18.64l7.2,11.39V298.23c0-.54.23-.77.77-.77h2.16c.54,0,.78.23.78.77v15.64c0,.53-.24.77-.78.77Z"/><path class="cls-4" d="M795.05,314.84a32.34,32.34,0,0,1-5-.33.77.77,0,0,1-.72-.88v-15a.89.89,0,0,1,.85-.9,36.9,36.9,0,0,1,5-.36c4.37,0,8,1.52,8,8.9C803.21,313.45,799.07,314.84,795.05,314.84Zm-1.92-3.24a12.19,12.19,0,0,0,1.64.1c3.83,0,4.68-2.05,4.68-5.65,0-3.42-.67-5.79-4.29-5.79a17.57,17.57,0,0,0-2,.13Z"/><path class="cls-4" d="M820.24,306.05c0,4.5-1.24,8.89-7.54,8.89s-7.43-4.37-7.43-8.89,1.29-8.9,7.51-8.9S820.24,301.52,820.24,306.05Zm-3.68,0c0-3.24-.46-5.89-3.8-5.89s-3.81,2.65-3.81,5.89.49,5.76,3.81,5.76S816.56,309.26,816.56,306.05Z"/><path class="cls-4" d="M825.8,308.31c0,.54-.25.77-.8.77h-1.46c-.54,0-.77-.23-.8-.77l-.36-10.93c0-.54.21-.77.75-.77h2.36c.54,0,.78.23.75.77Zm.31,5.56c0,.53-.23.77-.77.77h-2.16c-.54,0-.77-.24-.77-.77v-2.14c0-.54.23-.77.77-.77h2.19c.54,0,.77.23.77.77Z"/><path class="cls-1" d="M252,57.68a43.5,43.5,0,0,0-5.9-5.93A44.18,44.18,0,0,0,183.84,114a44.67,44.67,0,0,0,5.93,5.9A44.18,44.18,0,0,0,252,57.68ZM189.76,108a35.86,35.86,0,0,1,50.38-50.38Zm28.06,13.54a35.7,35.7,0,0,1-22.13-7.64L246,63.6a35.85,35.85,0,0,1-28.21,58Z"/><path class="cls-5" d="M932.28,616.3A99.89,99.89,0,1,0,955,679.72,99.51,99.51,0,0,0,932.28,616.3ZM791.64,730.18A81.08,81.08,0,0,1,905.56,616.26Zm63.47,30.62a80.69,80.69,0,0,1-50-17.29L918.9,629.68A81.08,81.08,0,0,1,855.11,760.8Z"/><path class="cls-6" d="M262.37,738.81a127.07,127.07,0,0,0-16.84-16.93,126,126,0,1,0,16.84,16.93ZM85,882.46a102.27,102.27,0,0,1,143.7-143.7ZM165,921.08a101.84,101.84,0,0,1-63.12-21.79l143.59-143.6A102.27,102.27,0,0,1,165,921.08Z"/></svg>