<svg id="Capa_1" data-name="Capa 1" xmlns="http://www.w3.org/2000/svg" viewBox="0 0 1000 1000"><defs><style>.cls-1,.cls-2,.cls-3,.cls-4,.cls-5{fill:#b93544;}.cls-1{opacity:0.3;}.cls-2{opacity:0.5;}.cls-4{opacity:0.85;}.cls-5{opacity:0.7;}.cls-6{fill:#ffb600;}</style></defs><title>svgslucky</title><circle class="cls-1" cx="513.98" cy="583" r="396.99"/><circle class="cls-2" cx="513.98" cy="583" r="325.95"/><circle class="cls-3" cx="513.98" cy="583" r="252.12"/><path class="cls-4" d="M271.93,702.29a31.24,31.24,0,0,1-29,31.16c-.75.06-1.51.09-2.27.09H0V606a37.23,37.23,0,0,1,8,4.21,69.75,69.75,0,0,1,137.76-4.11A61.17,61.17,0,0,1,229.81,673a30.9,30.9,0,0,1,10.87-2A31.25,31.25,0,0,1,271.93,702.29Z"/><path class="cls-5" d="M1000,200.43V355.31H670.54v-.56a70.12,70.12,0,1,1,0-140.23h.6a116.59,116.59,0,0,1,232,.43,54.12,54.12,0,0,1,32.21,16.28A54.33,54.33,0,0,1,1000,200.43Z"/><path class="cls-3" d="M369.52,134.43a31.39,31.39,0,0,1-31.39,31.39v.38H164.9v-.38a47.66,47.66,0,1,1,26.23-87.46,37.29,37.29,0,0,1,22.94-7.85q1.32,0,2.61.09a69.23,69.23,0,1,1,133.81,35A31.42,31.42,0,0,1,369.52,134.43Z"/><path class="cls-6" d="M621.33,471.37H407.48a4.75,4.75,0,0,0-4.75,4.75V690a4.75,4.75,0,0,0,4.75,4.75H621.33a4.75,4.75,0,0,0,4.75-4.75V476.12A4.75,4.75,0,0,0,621.33,471.37Zm-4.74,213.86H412.22V480.86H616.59Z"/><path class="cls-6" d="M534.14,471.44a3.94,3.94,0,0,0-.77-.07h-34.2a4.76,4.76,0,0,0-4.74,4.75V690a4.75,4.75,0,0,0,4.74,4.75h34.2a4.75,4.75,0,0,0,4.74-4.75V476.12A4.74,4.74,0,0,0,534.14,471.44Zm-5.52,213.79h-24.7V480.86h24.7Z"/><path class="cls-6" d="M670.62,533.57a4.75,4.75,0,1,1,0-9.49,35.19,35.19,0,0,0,35.15-35.15,4.74,4.74,0,0,1,9.48,0A44.69,44.69,0,0,1,670.62,533.57Z"/><path class="cls-6" d="M626.44,588.07a9.09,9.09,0,0,1-7.58-3.76c-1.53-2.12-2.27-4.92-2.27-8.55,0-45.56,12.74-79.44,37.85-100.68,15.45-13.07,35.86-21.2,59-23.53a126.28,126.28,0,0,1,30.7.43,4.76,4.76,0,0,1,4,4.68,37.05,37.05,0,0,1-37,37,4.74,4.74,0,1,1,0-9.48,27.56,27.56,0,0,0,27.2-23.34c-12.51-1.12-49.9-2.11-77.79,21.53-22.85,19.36-34.43,50.78-34.43,93.38a7.68,7.68,0,0,0,.39,2.83h0c.95,0,3.93-.84,9.06-4.9,13.21-10.47,28-31.89,28-44.87a4.75,4.75,0,0,1,9.49,0c0,14.84-12.17,31.49-17.41,38C647.28,577.07,635.25,588.07,626.44,588.07Z"/><path class="cls-6" d="M358.38,533.57a44.69,44.69,0,0,1-44.64-44.64,4.75,4.75,0,0,1,9.49,0,35.19,35.19,0,0,0,35.15,35.15,4.75,4.75,0,0,1,0,9.49Z"/><path class="cls-6" d="M402.55,588.07c-8.81,0-20.84-11-29.16-21.29-5.23-6.47-17.41-23.12-17.41-38a4.75,4.75,0,0,1,9.49,0c0,13,14.77,34.4,28,44.87,5.13,4.06,8.12,4.9,9.07,4.9h0a8,8,0,0,0,.38-2.83c0-42.64-11.6-74.08-34.49-93.44-28-23.64-65.24-22.62-77.73-21.48a27.57,27.57,0,0,0,27.21,23.35,4.74,4.74,0,0,1,0,9.48,37,37,0,0,1-37-37,4.75,4.75,0,0,1,3.95-4.68,126.32,126.32,0,0,1,30.7-.43c23.16,2.33,43.56,10.46,59,23.53,25.12,21.24,37.85,55.12,37.85,100.68,0,3.63-.74,6.43-2.27,8.55A9.09,9.09,0,0,1,402.55,588.07Z"/><path class="cls-6" d="M518.88,471.37c-.17-.49-.36-.92-.5-1.26a57.66,57.66,0,0,0-3.19-6.06C509.56,454.4,498.63,438.78,487,424c-27.92-35.61-34.77-35.61-37.35-35.61a25.47,25.47,0,0,0-25.44,25.45c0,2.83,0,9.46,36.43,35.36,11.91,8.47,24.27,16.48,34,22.17l1.64.94a110.09,110.09,0,0,0,12.54,6.41,14,14,0,0,0,5,1.23,6.57,6.57,0,0,0,1.64-.2,5.24,5.24,0,0,0,2.49-1.5C520.14,476,519.56,473.24,518.88,471.37Zm-47.43-26.19c-25.74-17.81-36.57-28.56-37.72-31.62a16,16,0,0,1,15.73-15.68c3,1,14.21,11.24,33.24,36,10.54,13.73,18.48,25.36,23,32.79A387.35,387.35,0,0,1,471.45,445.18Z"/><path class="cls-6" d="M577.64,384.64c-2.83,0-9.46,0-35.36,36.43-11.35,16-21.88,32.74-27.09,43-1,2-1.85,3.79-2.43,5.24a20.77,20.77,0,0,0-.74,2.08c-.66,2.18-1,5,1.21,7.08a5.31,5.31,0,0,0,2.33,1.3,6.25,6.25,0,0,0,1.42.16,11.26,11.26,0,0,0,4.39-1.13,101.85,101.85,0,0,0,12.77-7.34l.11-.07c9.36-6,21.55-14.78,33.23-23.93,35.6-27.93,35.6-34.78,35.6-37.36A25.47,25.47,0,0,0,577.64,384.64Zm-20,58.46c-13.73,10.54-25.37,18.48-32.8,23a390.39,390.39,0,0,1,21.5-34.28c17.8-25.74,28.56-36.57,31.62-37.72a16,16,0,0,1,15.67,15.73C592.62,412.88,582.35,424.08,557.6,443.1Z"/><path class="cls-6" d="M428.7,931.5a4.74,4.74,0,0,1-4.74-4.74V749.66a4.75,4.75,0,0,1,9.49,0v177.1A4.75,4.75,0,0,1,428.7,931.5Z"/><path class="cls-6" d="M598.21,875.84a4.75,4.75,0,0,1-4.75-4.74V733.85a4.75,4.75,0,0,1,9.49,0V871.1A4.74,4.74,0,0,1,598.21,875.84Z"/><path class="cls-6" d="M516.32,905.57a4.74,4.74,0,0,1-4.74-4.74V803.11a4.75,4.75,0,0,1,9.49,0v97.72A4.75,4.75,0,0,1,516.32,905.57Z"/></svg>