<svg id="Capa_1" data-name="Capa 1" xmlns="http://www.w3.org/2000/svg" viewBox="0 0 25 25"><defs><style>.cls-1{fill:#912734;stroke:#912734;stroke-miterlimit:10;stroke-width:0.25px;}</style></defs><title>luckyicons</title><path class="cls-1" d="M15.74,17.21A8.11,8.11,0,1,1,23.85,9.1,8.11,8.11,0,0,1,15.74,17.21Zm0-15.47A7.37,7.37,0,1,0,23.11,9.1,7.37,7.37,0,0,0,15.74,1.74Z"/><path class="cls-1" d="M15.74,15.31a6.21,6.21,0,1,1,6.2-6.21A6.21,6.21,0,0,1,15.74,15.31Zm0-11.67A5.47,5.47,0,1,0,21.21,9.1,5.47,5.47,0,0,0,15.74,3.64Z"/><path class="cls-1" d="M3.61,24a.36.36,0,0,1-.26-.11L1.26,21.81a.37.37,0,0,1,0-.52l7.82-7.82a.37.37,0,0,1,.52,0l2.08,2.09a.37.37,0,0,1,0,.52L3.87,23.89A.4.4,0,0,1,3.61,24ZM2,21.55l1.57,1.56,7.29-7.29L9.34,14.25Z"/><path class="cls-1" d="M5.06,22.55a.36.36,0,0,1-.26-.11L2.71,20.35a.37.37,0,1,1,.52-.52l2.09,2.09a.37.37,0,0,1,0,.52A.38.38,0,0,1,5.06,22.55Z"/></svg>