<svg id="Capa_1" data-name="Capa 1" xmlns="http://www.w3.org/2000/svg" viewBox="0 0 700 670"><defs><style>.cls-1{fill:#ba3545;stroke:#ba3545;stroke-miterlimit:10;}</style></defs><title>intro</title><path class="cls-1" d="M658.12,217.07a20,20,0,0,0,0-28.32L532,62.64a20,20,0,0,0-28.32,0,34.77,34.77,0,0,1-49.13,0,20,20,0,0,0-28.33,0L233.32,255.53a395,395,0,0,1-47.53-188,20,20,0,1,0-40.06,0A434.85,434.85,0,0,0,205.2,287.2C261.4,383.11,350.81,453.26,457,484.73a435.22,435.22,0,0,0,123.9,17.9,20,20,0,0,0,0-40.06A397.11,397.11,0,0,1,498.64,454L658.11,294.56a20,20,0,0,0,0-28.32A34.8,34.8,0,0,1,658.12,217.07Zm-40.56,61.4L454.16,441.84A393.65,393.65,0,0,1,254.8,290.69L442.27,103.22a75.09,75.09,0,0,0,73.65,0L617.56,204.84A75.13,75.13,0,0,0,617.56,278.47Z"/><path class="cls-1" d="M45.79,157.86c-2.59.26-3.81-.74-4.07-3.32l-4.58-45.35c-.26-2.59.74-3.81,3.33-4.08l74.92-7.56c2.59-.26,3.81.74,4.08,3.33l1.1,11c.26,2.58-.74,3.8-3.32,4.07l-64.33,6.49L56,153.09c.26,2.59-.73,3.81-3.32,4.07Z"/><path class="cls-1" d="M66.52,228.82c-2.52.63-4,.11-5.52-2.2a100.69,100.69,0,0,1-10.82-26.29c-3.18-12.86-.61-26.25,16.22-30.4l36.79-9.09c2.52-.62,3.87.19,4.5,2.72l2.37,9.62c.62,2.52-.19,3.87-2.72,4.5l-35.46,8.75c-8.66,2.14-9.4,7.93-8.28,14a37.66,37.66,0,0,0,3.94,10.26l45.2-11.16c2.53-.63,3.88.19,4.5,2.71l2.38,9.62c.62,2.53-.2,3.88-2.72,4.5Z"/><path class="cls-1" d="M94.26,237.52c22.54-9,36.17,1.43,42.83,18.1a68.15,68.15,0,0,1,3.67,12.54c.44,2.76-.51,4.07-3.06,4.69l-5.41,1.49c-2.55.62-3.84-.6-4.32-2.81a63.31,63.31,0,0,0-2.82-9.41c-3.76-9.43-10.36-14.26-24.62-8.57C85.69,259.47,84.74,268.12,88.28,277a62.93,62.93,0,0,0,5.53,10.19c1.34,2,.8,3.67-1.52,4.87l-4.35,2.13c-2.13,1-3.72.69-5.22-1.38a62,62,0,0,1-7.28-13.23C69.11,263.69,72.52,246.19,94.26,237.52Z"/><path class="cls-1" d="M128.85,320.56l-3.37-5.92L103.86,327c-2.26,1.28-3.78.87-5.07-1.39l-5.15-9c-1.29-2.26-.88-3.79,1.38-5.07l68.73-39.22c2.26-1.29,3.89-.93,5.28,1.26l5.8,8.67c1.4,2.2,1.09,3.66-1.17,4.95l-38.39,21.91,3.43,6,25.46,3.15a6.75,6.75,0,0,1,5.53,3.69l5.65,9.89c1.1,1.94.78,3.12-1.85,2.77l-32.08-4.51-15.8,36.53c-1,2.44-2.21,2.12-3.31.18L116.16,356a6.77,6.77,0,0,1-.37-6.64Z"/><path class="cls-1" d="M144,396.14a4.48,4.48,0,0,1-.13-6l33.21-49.07c1.5-2.11,2.84-2.21,4.43-.16l5.86,7.53a4.48,4.48,0,0,1,.13,6l-27.89,39,43.71-18.64c2.41-.94,4.13-.55,5.73,1.51L215,383.9c1.6,2.05,1.18,3.32-1.24,4.26L159.51,408c-23.57,8.62-35,7.46-44.2-4.36a45.23,45.23,0,0,1-4.28-6.71c-1.13-2.27-.6-4.4,1.76-5.61l4.37-2.46c2.28-1.3,3.45-.8,4.53,1.19a24.25,24.25,0,0,0,2.16,3.18c5.48,7,13.7,8.32,21.33,4.42Z"/><path class="cls-1" d="M233.39,383.75c1.81-1.86,3.74-1.89,6-.44a153.3,153.3,0,0,1,17.85,14.86c12.11,11.72,20.75,26.29,4.55,43-13.09,13.53-27.5,10.61-39.25-.76A62.64,62.64,0,0,1,214,430.15l-18.7,19.31c-1.81,1.87-3.39,1.9-5.25.09L182.21,442c-1.87-1.81-1.89-3.39-.08-5.26Zm-5.32,44.33c6.14,5.95,12.94,9.25,20.69,1.24,8.62-8.9,4.73-16.46-.7-21.71a46.08,46.08,0,0,0-7-5.41l-18.7,19.32A41.29,41.29,0,0,0,228.07,428.08Z"/><path class="cls-1" d="M253,465.3c14.28-19.78,28.16-20.6,43.43-9.58,15.86,11.45,18.89,24.18,4.54,44.06C286.73,519.46,273,520.53,257,509,241.85,498.05,238.69,485.08,253,465.3Zm13.86,10c-9.21,12.75-7.48,19-1.56,23.31s12.43,3.93,21.64-8.82c9.79-13.55,7.68-18.89,1.66-23.24S276.61,461.75,266.83,475.31Z"/><path class="cls-1" d="M311.88,506.39c11.47-21.39,28.61-22.18,44.44-13.7a67.69,67.69,0,0,1,10.88,7.24c2.11,1.83,2.23,3.44.67,5.56l-3.18,4.62c-1.55,2.11-3.32,2-5.11.63a64.17,64.17,0,0,0-8.22-5.39c-8.95-4.8-17.11-4.25-24.36,9.29-7.55,14.08-2.71,21.31,5.69,25.81a61.88,61.88,0,0,0,10.8,4.24c2.31.68,3,2.3,2,4.71l-1.95,4.43c-1,2.14-2.41,2.93-4.89,2.3a61.36,61.36,0,0,1-14.09-5.44C309.47,542.62,300.83,527,311.88,506.39Z"/><path class="cls-1" d="M391.86,547.71l-6.39-2.35-8.61,23.36c-.89,2.44-2.33,3.1-4.77,2.2l-9.76-3.59c-2.44-.91-3.1-2.34-2.2-4.78l27.34-74.26c.9-2.44,2.38-3.21,4.86-2.43l10,2.9c2.48.78,3.19,2.09,2.29,4.54l-15.28,41.48,6.51,2.4,21.51-14a6.77,6.77,0,0,1,6.61-.73l10.69,3.93c2.09.78,2.6,1.89.37,3.31l-27.46,17.21L419,585c.79,2.53-.33,3.05-2.42,2.28L405,583a6.76,6.76,0,0,1-4.55-4.84Z"/><path class="cls-1" d="M451.55,565.37,451.2,567c-2.39,10.88,3.95,17.22,14,19.43a68.21,68.21,0,0,0,14.62,1.56c2.28,0,3.6.91,3.29,3.51l-.57,5.45c-.31,2.6-1.84,3.78-4.27,3.88a79.61,79.61,0,0,1-18.17-1.57c-17.66-3.88-30-15.46-24.3-41.22,3.5-16,15.06-28.78,36-24.19,18.63,4.09,23.39,15.91,20.47,29.22a43.11,43.11,0,0,1-2.15,6.89c-1,2.43-2.63,3.35-5.17,2.79Zm18.09-19.48c-10.64-2.34-14.54,6.19-15.46,9.79l23.71,5.21C479.49,553.63,477.27,547.56,469.64,545.89Z"/><path class="cls-1" d="M513.56,554.2l-7.4-.69c-2.59-.24-3.59-1.46-3.35-4l.42-4.44c.23-2.59,1.45-3.59,4-3.35l7.76.73,1-10.73c.24-2.59,1.46-3.72,4.06-3.6l10.07.07c2.61,0,3.63,1.08,3.39,3.68l-1.13,12.08,14.31,1.34c2.58.23,3.47,1.44,3,4l-.8,4.53c-.36,2.58-1.7,3.57-4.29,3.33l-13.44-1.25-3,32.55c-.42,4.56.49,6.76,4.68,7.15a39.93,39.93,0,0,0,5.47,0c2.38-.15,3.28.81,3.54,3.45l.29,4.87c.12,2.62-.51,4.06-3,4.57a41.79,41.79,0,0,1-11,.46c-19.48-1.82-18.42-13.16-17.43-23.76Z"/></svg>