<svg id="Capa_1" data-name="Capa 1" xmlns="http://www.w3.org/2000/svg" viewBox="0 0 300 300"><defs><style>.cls-1{fill:#912734;}</style></defs><title>iconLucky</title><path class="cls-1" d="M231.6,274.91H70.5a4.67,4.67,0,0,1-4.67-4.67V154.46l-36.16.21h0a4.67,4.67,0,0,1-3.3-8L146.58,26.46a4.68,4.68,0,0,1,6.6,0l120.47,120a4.67,4.67,0,0,1-3.3,8H236.27v115.8A4.67,4.67,0,0,1,231.6,274.91ZM75.17,265.57H226.93V149.77a4.67,4.67,0,0,1,4.67-4.67h27.45L149.89,36.36,41,145.27l29.5-.17h0a4.68,4.68,0,0,1,4.67,4.67Z"/><path class="cls-1" d="M149.88,183.39a33.62,33.62,0,1,1,33.62-33.62A33.66,33.66,0,0,1,149.88,183.39Zm0-57.9a24.28,24.28,0,1,0,24.28,24.28A24.3,24.3,0,0,0,149.88,125.49Z"/><path class="cls-1" d="M190,274.91H109.73a4.67,4.67,0,0,1-4.67-4.67V225.41a4.67,4.67,0,0,1,4.67-4.67H190a4.67,4.67,0,0,1,4.67,4.67v44.83A4.67,4.67,0,0,1,190,274.91Zm-75.64-9.34h71V230.08h-71Z"/></svg>