<svg id="Capa_1" data-name="Capa 1" xmlns="http://www.w3.org/2000/svg" viewBox="0 0 25 25"><defs><style>.cls-1{fill:#912734;stroke:#912734;stroke-miterlimit:10;stroke-width:0.5px;}</style></defs><title>luckyicons</title><path class="cls-1" d="M23.27,10.1a2.07,2.07,0,0,1,.62-1.48.4.4,0,0,0,0-.56L16.94,1.11a.4.4,0,0,0-.56,0,2.07,2.07,0,0,1-1.48.62,2.06,2.06,0,0,1-1.48-.62.4.4,0,0,0-.56,0L1.11,12.86a.41.41,0,0,0,0,.56,2.06,2.06,0,0,1,.62,1.48,2.07,2.07,0,0,1-.62,1.48.4.4,0,0,0,0,.56l7,7a.4.4,0,0,0,.56,0,2.08,2.08,0,0,1,3,0,.41.41,0,0,0,.56,0L23.89,12.14a.41.41,0,0,0,0-.56A2.06,2.06,0,0,1,23.27,10.1ZM2.52,14.9a2.85,2.85,0,0,0-.58-1.74L13.16,1.94a2.85,2.85,0,0,0,1.74.58,2.85,2.85,0,0,0,1.74-.58l6.42,6.42a2.9,2.9,0,0,0,0,3.48L11.84,23.06a2.9,2.9,0,0,0-3.48,0L1.94,16.64A2.87,2.87,0,0,0,2.52,14.9Z"/></svg>